<svg xmlns="http://www.w3.org/2000/svg" width="1024" height="1024" viewBox="0 0 1024 1024" version="1.1"><path d="M 458.230 230.115 C 452.368 233.017, 447.450 239.107, 445.089 246.389 C 443.999 249.750, 437.636 274.775, 430.949 302 C 411.899 379.550, 376.845 520.468, 376.521 520.803 C 376.359 520.970, 375.252 517.820, 374.059 513.803 C 367.310 491.062, 354.543 452.940, 352.525 449.500 C 349.455 444.267, 345.443 440.531, 340.500 438.303 C 336.815 436.642, 331.801 436.477, 276.750 436.206 L 217 435.912 217 454.456 L 217 473 269.345 473 C 317.950 473, 321.799 473.125, 323.215 474.750 C 324.053 475.712, 331.351 496.383, 339.431 520.685 C 349.724 551.639, 354.991 566.069, 357.023 568.872 C 365.536 580.625, 381.960 583.234, 393.273 574.632 C 401.015 568.745, 402.977 563.987, 410.932 531.805 C 414.916 515.687, 428.711 460.022, 441.588 408.104 C 454.465 356.186, 465 313.098, 465 312.354 C 465 311.609, 465.375 311, 465.833 311 C 466.291 311, 467.685 315.837, 468.930 321.750 C 470.901 331.113, 476.707 357.936, 500.156 466 C 506.654 495.949, 509.733 502.282, 520.681 508.221 C 533.200 515.012, 548.567 513.513, 559.666 504.417 C 565.662 499.504, 570.682 492.072, 585.950 465.500 C 593.219 452.850, 599.488 442.163, 599.882 441.751 C 600.276 441.339, 603.553 444.714, 607.164 449.251 C 617.939 462.789, 622.719 467.641, 627.739 470.135 L 632.500 472.500 677.493 472.807 C 708.647 473.020, 723.873 472.766, 726.993 471.982 C 736.607 469.566, 741.857 461.886, 740.681 451.958 C 739.957 445.841, 737.111 441.607, 731.956 438.977 C 728.287 437.106, 725.954 437, 688.283 437 C 665.277 437, 647.045 436.586, 645.069 436.020 C 640.756 434.783, 638.114 432.277, 625.924 417.860 C 614.232 404.032, 609.480 401, 599.500 401 C 591.510 401, 584.668 404.371, 578.284 411.452 C 575.536 414.500, 566.290 429.143, 556.560 445.856 C 547.243 461.860, 539.508 474.841, 539.370 474.704 C 539.104 474.437, 538.959 473.779, 513.485 357.500 C 490.594 253.011, 488.472 243.846, 486.098 239.191 C 481.119 229.432, 468.145 225.207, 458.230 230.115" stroke="none" fill="#1b1b1b" fill-rule="evenodd"/><path d="M 240.300 129.849 C 229.881 133.476, 222.458 140.706, 218.792 150.797 C 217.212 155.146, 217.080 166.042, 217.042 295.706 L 217 435.912 276.750 436.206 C 331.801 436.477, 336.815 436.642, 340.500 438.303 C 345.443 440.531, 349.455 444.267, 352.525 449.500 C 354.543 452.940, 367.310 491.062, 374.059 513.803 C 375.252 517.820, 376.359 520.970, 376.521 520.803 C 376.845 520.468, 411.899 379.550, 430.949 302 C 437.636 274.775, 443.999 249.750, 445.089 246.389 C 450.639 229.271, 467.453 222.817, 480.759 232.696 C 487.502 237.703, 485.907 231.619, 513.485 357.500 C 538.959 473.779, 539.104 474.437, 539.370 474.704 C 539.508 474.841, 547.243 461.860, 556.560 445.856 C 566.290 429.143, 575.536 414.500, 578.284 411.452 C 584.668 404.371, 591.510 401, 599.500 401 C 609.480 401, 614.232 404.032, 625.924 417.860 C 638.114 432.277, 640.756 434.783, 645.069 436.020 C 647.045 436.586, 665.277 437, 688.283 437 C 725.954 437, 728.287 437.106, 731.956 438.977 C 737.111 441.607, 739.957 445.841, 740.681 451.958 C 741.857 461.886, 736.607 469.566, 726.993 471.982 C 723.873 472.766, 708.647 473.020, 677.493 472.807 L 632.500 472.500 627.739 470.135 C 622.719 467.641, 617.939 462.789, 607.164 449.251 C 603.553 444.714, 600.276 441.339, 599.882 441.751 C 599.488 442.163, 593.219 452.850, 585.950 465.500 C 570.682 492.072, 565.662 499.504, 559.666 504.417 C 548.567 513.513, 533.200 515.012, 520.681 508.221 C 509.733 502.282, 506.654 495.949, 500.156 466 C 476.707 357.936, 470.901 331.113, 468.930 321.750 C 467.685 315.837, 466.291 311, 465.833 311 C 465.375 311, 465 311.609, 465 312.354 C 465 313.098, 454.465 356.186, 441.588 408.104 C 428.711 460.022, 414.916 515.687, 410.932 531.805 C 402.977 563.987, 401.015 568.745, 393.273 574.632 C 381.821 583.340, 364.788 580.412, 356.574 568.324 C 355.099 566.154, 347.846 545.993, 339.381 520.535 C 331.328 496.316, 324.053 475.712, 323.215 474.750 C 321.799 473.125, 317.949 473, 269.335 473 L 216.980 473 217.240 664.250 L 217.500 855.500 220.432 861.290 C 223.692 867.728, 229.564 873.664, 236.151 877.179 L 240.500 879.500 314.500 879.500 L 388.500 879.500 393.784 876.716 C 400.834 873.001, 406.626 867.029, 409.852 860.148 L 412.500 854.500 413.025 769 C 413.613 673.075, 413.139 679.009, 421.174 666.977 C 425.937 659.845, 434.231 653.258, 442.775 649.823 L 448.500 647.522 529.500 646.900 C 616.789 646.231, 616.876 646.226, 642.621 640.452 C 688.151 630.240, 731.653 605.805, 768.875 569.533 C 785.401 553.429, 795.732 541.208, 806.520 525 C 827.340 493.720, 839.478 464.120, 846.444 427.643 C 851.923 398.954, 850.816 353.195, 843.925 323.500 C 839.769 305.590, 830.579 280.425, 823.427 267.371 C 811.467 245.542, 801.904 231.864, 786.853 215.057 C 750.980 175.003, 698.657 145.111, 645.058 134.051 C 617.266 128.316, 629.216 128.634, 429.500 128.324 C 254.094 128.052, 245.257 128.123, 240.300 129.849" stroke="none" fill="#67C7EE" fill-rule="evenodd"/></svg>